# xmcd CD database file
#
# Track frame offsets:
#	150
#	24435
#	51817
#	73525
#	94840
#	116007
#	139322
#	175837
#	200285
#
# Disc length: 2955 seconds
#
# Revision: 0
# Processed by: cddbd v1.4PL0 Copyright (c) Steve Scherf et al.
# Submitted via: CDex 1.50beta8
#
DISCID=7a0b8909
DTITLE=Vince Andrews - Love,Oh Love
DYEAR=1983
DGENRE=Jazz
TTITLE0=Vibrating With Vince
TTITLE1=Being With You
TTITLE2=The One Who Needs You
TTITLE3=Akilla(Morning Sun)
TTITLE4=Love,Oh Love
TTITLE5=Anne
TTITLE6=Over The Rainbow
TTITLE7=Merry Christmas Baby
TTITLE8=Love,Oh Love(alternate take)
EXTD=YEAR: 1983
EXTT0=
EXTT1=
EXTT2=
EXTT3=
EXTT4=
EXTT5=
EXTT6=
EXTT7=
EXTT8=
PLAYORDER=
